<?xml version="1.0" encoding="UTF-8"?>
<!DOCTYPE svg PUBLIC "-//W3C//DTD SVG 1.1//EN" "http://www.w3.org/Graphics/SVG/1.1/DTD/svg11.dtd">
<!-- Creator: CorelDRAW X6 -->
<svg xmlns="http://www.w3.org/2000/svg" xml:space="preserve" width="21cm" height="29.7cm" version="1.1" style="shape-rendering:geometricPrecision; text-rendering:geometricPrecision; image-rendering:optimizeQuality; fill-rule:evenodd; clip-rule:evenodd"
viewBox="0 0 21000 29700"
 xmlns:xlink="http://www.w3.org/1999/xlink">
 <defs>
  <style type="text/css">
   <![CDATA[
    .fil5 {fill:none}
    .fil0 {fill:#2B2A29}
    .fil2 {fill:#3E413F}
    .fil6 {fill:#99322A}
    .fil1 {fill:#C8D3D9}
    .fil4 {fill:#DCA83A}
    .fil3 {fill:#FEFEFE}
   ]]>
  </style>
 </defs>
 <g id="Layer_x0020_1">
  <metadata id="CorelCorpID_0Corel-Layer"/>
  <g id="_199850448">
   <path class="fil0" d="M15944 9803l-10279 0 0 82c-1,360 -26,8821 0,9462 28,678 208,976 552,1320l-4 -5c386,449 1314,596 1353,602l7 1 7 0c17,0 1661,-21 2183,7 487,32 889,346 1000,441l82 72 83 -73c111,-94 512,-408 1000,-440 521,-28 2166,-8 2182,-7l7 0 7 -1c39,-6 967,-153 1353,-602l-4 5c345,-343 525,-642 552,-1320 26,-640 1,-9102 0,-9462l0 -82 -84 0z"/>
   <path class="fil1" d="M15944 9885l-10195 0c0,0 -26,8812 0,9458 26,646 193,931 528,1266 371,430 1302,574 1302,574 0,0 1658,-21 2189,8 514,34 933,360 1051,461l27 24 27 -24c118,-101 536,-427 1051,-461 531,-29 2189,-8 2189,-8 0,0 931,-143 1302,-574 336,-334 502,-620 528,-1266 26,-646 0,-9458 0,-9458z"/>
   <path class="fil2" d="M9666 13760c-39,-339 -22,-758 -83,-985 -61,-228 -241,-325 -272,-716 -25,-402 -67,-1041 -67,-1041 0,0 -11,-483 -422,-522 -411,-39 -497,669 -497,669 0,0 -78,638 -108,891 -31,253 -186,697 -197,888 -11,192 11,602 -31,949 -42,347 -225,586 -228,1016 -3,430 441,833 1118,860 677,28 1030,-472 1074,-819 39,-458 -250,-852 -289,-1191zm-458 -1316c-25,17 -175,-64 -463,-36 -289,28 -347,119 -366,94 -19,-25 75,-211 80,-419 6,-208 36,-919 36,-919 0,0 31,-466 314,-475 361,-28 247,619 286,932 0,602 139,805 114,821z"/>
   <path class="fil3" d="M9125 12486c-100,-28 -180,0 -175,8 6,8 75,8 167,39 92,31 128,61 150,56 22,-6 -42,-75 -141,-103z"/>
   <path class="fil3" d="M9052 12547c-100,-28 -180,0 -175,8 6,8 75,8 167,39 92,31 128,61 150,56 22,-6 -42,-75 -142,-103z"/>
   <path class="fil3" d="M8517 12558c-99,32 -150,100 -141,104 9,4 67,-35 160,-60 93,-25 140,-20 155,-37 15,-17 -76,-39 -175,-7z"/>
   <path class="fil4" d="M8975 12812c0,80 -71,146 -160,146 -88,0 -160,-65 -160,-146 0,-80 71,-146 160,-146 88,0 160,65 160,146z"/>
   <path class="fil3" d="M9485 12791c0,-17 -86,-56 -203,-42 -117,14 -339,230 -447,239 -136,11 -330,-214 -397,-250 -67,-36 -255,-33 -244,-3 11,31 122,14 233,61 111,47 247,239 402,233 155,-6 347,-211 427,-228 80,-17 228,6 228,-11z"/>
   <path class="fil3" d="M9494 12881c0,-16 -86,-52 -203,-39 -117,13 -339,216 -447,224 -136,10 -330,-201 -397,-235 -67,-34 -255,-31 -244,-3 11,29 122,13 233,57 111,44 247,224 402,219 155,-5 347,-198 427,-214 80,-16 228,5 228,-10z"/>
   <path class="fil3" d="M8006 14137c-17,17 -69,266 -100,413 -31,147 -69,230 -42,405 31,222 153,319 161,305 8,-14 -122,-222 -125,-411 -3,-189 42,-253 97,-450 55,-197 25,-280 8,-264z"/>
   <path class="fil3" d="M8100 14079c-20,18 -66,302 -102,464 -36,162 -64,251 -31,444 36,244 187,346 197,330 10,-15 -169,-236 -172,-444 -3,-208 32,-283 98,-500 65,-217 31,-313 11,-294z"/>
   <path class="fil3" d="M8184 14062c-20,18 -44,291 -80,453 -36,162 -64,243 -31,435 36,244 184,357 194,341 10,-15 -166,-239 -170,-447 -3,-208 30,-283 95,-500 65,-217 11,-301 -8,-283z"/>
   <path class="fil3" d="M9302 12977c-17,-3 -372,402 -372,425 0,22 69,86 108,142 39,56 64,161 78,155 14,-6 -28,-119 -19,-144 8,-25 53,-67 64,-67 11,0 58,89 72,75 14,-14 -31,-92 -31,-105 0,-14 19,-39 28,-39 8,0 47,119 67,92 19,-28 -42,-105 -42,-130 0,-25 31,-33 31,-33 0,0 14,44 28,28 14,-17 -8,-50 -6,-67 3,-17 67,-114 78,-117 11,-3 39,44 42,33 17,-39 -58,-139 -67,-161 -8,-22 33,-67 22,-86 -11,-19 -36,22 -53,36 -17,14 -11,-33 -28,-36z"/>
   <path class="fil0" d="M9025 13346c-11,3 -55,39 -53,53 3,14 22,39 33,39 11,0 50,-44 53,-56 3,-11 -22,-39 -33,-36z"/>
   <path class="fil0" d="M9083 13416c-11,3 -55,39 -53,53 3,14 22,39 33,39 11,0 50,-44 53,-56 3,-11 -22,-39 -33,-36z"/>
   <path class="fil0" d="M9177 13332c-11,3 -55,39 -53,53 3,14 22,39 33,39 11,0 50,-44 53,-56 3,-11 -22,-39 -33,-36z"/>
   <path class="fil0" d="M9105 13263c-11,3 -55,39 -53,53 3,14 22,39 33,39 11,0 50,-44 53,-56 3,-11 -22,-39 -33,-36z"/>
   <path class="fil5" d="M9009 13972c-8,7 -28,51 -21,59 7,9 32,18 41,13 9,-5 22,-52 20,-61 -2,-9 -32,-18 -40,-11z"/>
   <path class="fil0" d="M9169 13188c-9,2 -47,33 -44,45 2,12 19,33 28,33 9,0 42,-38 44,-47 2,-9 -19,-33 -28,-31z"/>
   <path class="fil0" d="M9249 13252c-9,2 -47,33 -44,45 2,12 19,33 28,33 9,0 42,-38 44,-47 2,-9 -19,-33 -28,-31z"/>
   <path class="fil0" d="M9305 13193c-8,2 -38,25 -36,34 2,9 15,25 23,25 8,0 34,-28 36,-35 2,-7 -15,-25 -23,-23z"/>
   <path class="fil0" d="M9230 13124c-8,2 -38,25 -36,34 2,9 15,25 23,25 8,0 34,-28 36,-35 2,-7 -15,-25 -23,-23z"/>
   <path class="fil0" d="M9293 13052c-8,2 -38,25 -36,34 2,9 15,25 23,25 8,0 34,-28 36,-35 2,-7 -15,-25 -23,-23z"/>
   <path class="fil0" d="M9358 13124c-8,2 -41,27 -39,37 2,10 17,27 25,27 8,0 37,-31 39,-39 2,-8 -17,-27 -25,-25z"/>
   <path class="fil3" d="M9269 13626c-17,28 -19,100 -8,172 11,72 42,128 56,169 14,42 -44,111 -36,147 8,36 83,117 86,144 3,28 17,200 14,222 -3,22 -72,97 -64,119 8,22 58,-47 69,-25 11,22 6,92 -19,161 -25,69 -75,119 -69,144 6,25 14,-3 33,8 19,11 -28,150 -28,150l-128 236c0,0 -192,200 -169,233 22,33 144,-42 167,-33 22,8 -8,42 25,56 33,14 25,-53 58,-67 33,-14 186,-89 192,-69 6,19 -67,53 -161,114 -94,61 -325,89 -316,122 8,33 103,28 278,-39 175,-67 344,-128 466,-377 122,-250 0,-816 0,-816 0,0 -100,-461 -133,-624 -33,-164 -53,-413 -58,-425 -28,-22 -25,283 -47,297 -61,31 -25,-350 -39,-372 -14,-22 -53,105 -58,228 -6,122 55,214 44,250 -11,36 -11,47 -28,61 -17,14 -36,-294 -47,-311 -31,-19 -28,130 -19,225 8,94 39,183 28,200 -42,36 -69,-327 -86,-300z"/>
   <path class="fil0" d="M9505 13693c-14,11 -31,92 -31,108 0,17 28,117 36,128 8,11 31,-105 31,-105 0,0 -22,-142 -36,-130z"/>
   <path class="fil0" d="M9435 13829c-14,11 -31,92 -31,108 0,17 28,117 36,128 8,11 31,-105 31,-105 0,0 -22,-142 -36,-130z"/>
   <path class="fil0" d="M9358 13965c-14,11 -31,92 -31,108 0,17 28,117 36,128 8,11 31,-105 31,-105 0,0 -22,-142 -36,-130z"/>
   <path class="fil0" d="M9419 14170c-14,11 -31,92 -31,108 0,17 28,117 36,128 8,11 31,-105 31,-105 0,0 -22,-142 -36,-130z"/>
   <path class="fil0" d="M9499 14073c-14,11 -31,92 -31,108 0,17 28,117 36,128 8,11 31,-105 31,-105 0,0 -22,-142 -36,-130z"/>
   <path class="fil0" d="M9555 14276c-15,7 -39,70 -41,84 -2,13 16,97 23,107 7,10 41,-82 41,-82 0,0 -8,-117 -23,-110z"/>
   <path class="fil0" d="M9466 14437c-15,7 -39,70 -41,84 -2,13 16,97 23,107 7,10 41,-82 41,-82 0,0 -8,-117 -23,-110z"/>
   <path class="fil0" d="M9592 14435c-16,9 -51,93 -55,112 -4,18 0,133 5,147 6,14 55,-109 55,-109 0,0 12,-159 -5,-150z"/>
   <path class="fil0" d="M9385 15046c-18,4 -75,76 -84,92 -9,16 -36,128 -35,143 2,15 82,-90 82,-90 0,0 54,-150 36,-145z"/>
   <path class="fil0" d="M9438 15212c-19,0 -92,54 -105,67 -13,14 -69,114 -71,128 -2,15 103,-65 103,-65 0,0 92,-130 73,-131z"/>
   <path class="fil0" d="M9670 15130c-19,0 -92,54 -105,67 -13,14 -69,114 -71,128 -2,15 103,-65 103,-65 0,0 92,-130 73,-131z"/>
   <path class="fil0" d="M9707 14813c-17,8 -60,88 -65,106 -6,18 -13,132 -8,147 4,14 64,-103 64,-103 0,0 26,-157 9,-150z"/>
   <path class="fil0" d="M9699 14539c-14,12 -36,101 -37,119 -1,18 21,131 29,144 8,13 36,-116 36,-116 0,0 -14,-159 -29,-147z"/>
   <path class="fil0" d="M9222 15329c-16,-5 -84,27 -96,37 -12,9 -66,87 -69,100 -3,13 94,-35 94,-35 0,0 87,-97 71,-102z"/>
   <path class="fil0" d="M9470 14658c-22,10 -68,109 -72,131 -5,22 6,159 14,176 8,17 72,-127 72,-127 0,0 9,-190 -13,-179z"/>
   <path class="fil0" d="M9601 14791c-25,9 -94,117 -104,142 -10,24 -32,185 -28,205 4,21 102,-138 102,-138 0,0 54,-218 30,-209z"/>
   <path class="fil0" d="M9571 13937c-14,11 -31,92 -31,108 0,17 28,117 36,128 8,11 31,-105 31,-105 0,0 -22,-142 -36,-130z"/>
   <path class="fil0" d="M9621 14184c-14,6 -31,52 -31,61 0,9 28,66 36,72 8,6 31,-60 31,-60 0,0 -22,-80 -36,-74z"/>
   <path class="fil0" d="M9655 14337c-14,6 -31,52 -31,61 0,9 28,66 36,72 8,6 31,-60 31,-60 0,0 -22,-80 -36,-74z"/>
   <path class="fil3" d="M9047 13710c-19,6 -42,125 -56,144 -14,19 -78,-56 -94,-25 -17,31 75,81 75,103 0,22 -6,50 -11,61 -6,11 -64,-56 -75,-36 -11,19 58,75 64,94 6,19 -80,158 -80,158 0,0 -33,-14 -36,6 -3,19 33,28 39,39 6,11 -25,44 -33,53 -8,8 -69,-14 -75,6 -6,19 44,19 50,39 6,19 -86,175 -97,183 -11,8 -47,-33 -53,-17 -6,17 33,53 31,67 -3,14 -44,47 -44,47 0,0 -47,-31 -58,-14 -11,17 22,53 25,78 3,25 -108,139 -100,164 8,25 72,-39 86,-31 14,8 -28,80 -19,92 8,11 64,-47 78,-33 14,14 -6,44 3,67 8,22 42,-22 61,-14 19,8 -11,75 14,97 25,22 42,-44 69,-22 28,22 -8,47 3,78 11,31 58,-25 72,-11 14,14 -22,61 -6,86 17,25 47,-36 64,-36 17,0 125,144 133,128 8,-17 -33,-69 -36,-86 -3,-17 25,-39 42,-33 17,6 75,72 89,44 14,-28 -67,-89 -67,-103 0,-14 8,-28 19,-33 11,-6 44,31 53,19 8,-11 -28,-50 -28,-67 0,-17 33,-56 47,-53 14,3 58,39 69,19 11,-19 -97,-139 -100,-153 -3,-14 19,-44 33,-42 14,3 28,58 42,50 31,-33 -31,-86 -33,-103 -3,-17 28,-58 28,-58 0,0 28,33 42,17 14,-17 -31,-58 -28,-75 3,-17 17,-47 25,-61 8,-14 39,14 42,0 3,-14 -75,-94 -86,-111 -11,-17 28,-61 53,-61 25,0 47,44 61,31 31,-39 -211,-253 -203,-266 19,-39 122,64 130,28 8,-36 -186,-155 -169,-203 17,-47 69,-167 44,-178 -25,-11 -72,128 -80,136 -8,8 -25,6 -33,-19 -8,-25 36,-194 17,-189z"/>
   <path class="fil3" d="M8247 14673c-14,39 28,56 33,78 6,22 -14,33 -28,44 -14,11 -61,-44 -69,-25 -8,19 44,58 53,78 8,19 -50,86 -55,105 -6,19 47,17 50,36 3,19 -50,94 -36,111 14,17 14,-19 31,-14 17,6 61,39 64,56 3,17 -50,47 -36,72 14,25 28,-33 39,-39 11,-6 64,22 64,39 8,42 -186,147 -189,164 -3,17 203,192 214,178 11,-14 -36,-56 -36,-69 0,-14 -3,-28 19,-28 22,0 55,33 55,33 0,0 69,25 80,42 11,17 -31,39 -19,61 11,22 47,-33 69,-31 22,3 50,31 58,44 8,14 -61,83 -36,97 25,14 111,-114 128,-119 17,-6 36,6 50,19 14,14 -58,94 -36,111 22,17 69,-89 86,-103 17,-14 92,25 103,6 11,-19 -72,-44 -78,-56 -6,-11 11,-31 11,-31 0,0 78,36 89,8 11,-28 -50,-39 -56,-58 -6,-19 42,-80 53,-117 11,-36 -61,-36 -69,-53 -8,-17 8,-44 14,-56 6,-11 92,11 89,-5 -3,-17 -180,-56 -350,-222 -169,-167 -344,-397 -358,-358z"/>
   <path class="fil0" d="M9032 13972c-35,0 -43,59 -43,59 0,0 26,31 40,28 14,-4 38,-63 38,-63 0,0 0,-24 -35,-24z"/>
   <path class="fil0" d="M9101 14027c-35,0 -43,59 -43,59 0,0 26,31 40,28 14,-3 38,-63 38,-63 0,0 0,-24 -35,-24z"/>
   <path class="fil0" d="M8997 14083c-35,0 -43,59 -43,59 0,0 26,31 40,28 14,-3 38,-63 38,-63 0,0 0,-24 -35,-24z"/>
   <path class="fil0" d="M8944 14195c-35,0 -43,59 -43,59 0,0 26,31 40,28 14,-4 38,-63 38,-63 0,0 0,-24 -35,-24z"/>
   <path class="fil0" d="M8899 14300c-35,0 -43,59 -43,59 0,0 26,31 40,28 14,-4 38,-63 38,-63 0,0 0,-24 -35,-24z"/>
   <path class="fil0" d="M8846 14401c-35,0 -43,59 -43,59 0,0 26,31 40,28 14,-4 38,-63 38,-63 0,0 0,-24 -35,-24z"/>
   <path class="fil0" d="M8780 14506c-32,0 -39,55 -39,55 0,0 24,29 36,26 13,-3 35,-58 35,-58 0,0 0,-23 -32,-23z"/>
   <path class="fil0" d="M8731 14604c-32,0 -39,55 -39,55 0,0 24,29 36,26 13,-3 35,-58 35,-58 0,0 0,-22 -32,-22z"/>
   <path class="fil0" d="M8657 14716c-32,0 -39,55 -39,55 0,0 24,29 36,26 13,-3 35,-58 35,-58 0,0 0,-23 -32,-23z"/>
   <path class="fil0" d="M8710 14796c-32,0 -39,55 -39,55 0,0 24,29 36,26 13,-3 35,-58 35,-58 0,0 0,-22 -32,-22z"/>
   <path class="fil0" d="M8780 14855c-32,0 -39,55 -39,55 0,0 24,29 36,26 13,-3 35,-58 35,-58 0,0 0,-22 -32,-22z"/>
   <path class="fil0" d="M8850 14918c-32,0 -39,55 -39,55 0,0 24,29 36,26 13,-3 35,-58 35,-58 0,0 0,-22 -32,-22z"/>
   <path class="fil0" d="M8937 14995c-32,0 -39,55 -39,55 0,0 24,29 36,26 13,-3 35,-58 35,-58 0,0 0,-22 -32,-22z"/>
   <path class="fil0" d="M9010 15058c-32,0 -39,55 -39,55 0,0 24,29 36,26 13,-3 35,-58 35,-58 0,0 0,-23 -32,-23z"/>
   <path class="fil0" d="M9066 14974c-32,0 -39,55 -39,55 0,0 24,29 36,26 13,-3 35,-58 35,-58 0,0 0,-22 -32,-22z"/>
   <path class="fil0" d="M9143 14869c-32,0 -39,55 -39,55 0,0 24,29 36,26 13,-3 35,-58 35,-58 0,0 0,-22 -32,-22z"/>
   <path class="fil0" d="M9073 14799c-32,0 -39,55 -39,55 0,0 24,29 36,26 13,-3 35,-58 35,-58 0,0 0,-23 -32,-23z"/>
   <path class="fil0" d="M8996 14723c-32,0 -39,55 -39,55 0,0 24,29 36,26 13,-3 35,-58 35,-58 0,0 0,-23 -32,-23z"/>
   <path class="fil0" d="M8937 14660c-32,0 -39,55 -39,55 0,0 24,29 36,26 13,-3 35,-58 35,-58 0,0 0,-22 -32,-22z"/>
   <path class="fil0" d="M8853 14583c-32,0 -39,55 -39,55 0,0 24,29 36,26 13,-3 35,-58 35,-58 0,0 0,-22 -32,-22z"/>
   <path class="fil0" d="M8790 14674c-32,0 -39,55 -39,55 0,0 24,29 36,26 13,-3 35,-58 35,-58 0,0 0,-22 -32,-22z"/>
   <path class="fil0" d="M8860 14737c-32,0 -39,55 -39,55 0,0 24,29 36,26 13,-3 35,-58 35,-58 0,0 0,-23 -32,-23z"/>
   <path class="fil0" d="M8940 14799c-32,0 -39,55 -39,55 0,0 24,29 36,26 13,-3 35,-58 35,-58 0,0 0,-23 -32,-23z"/>
   <path class="fil0" d="M9017 14890c-32,0 -39,55 -39,55 0,0 24,29 36,26 13,-3 35,-58 35,-58 0,0 0,-22 -32,-22z"/>
   <path class="fil0" d="M9129 14684c-32,0 -39,55 -39,55 0,0 24,29 36,26 13,-3 35,-58 35,-58 0,0 0,-23 -32,-23z"/>
   <path class="fil0" d="M9171 14583c-32,0 -39,55 -39,55 0,0 24,29 36,26 13,-3 35,-58 35,-58 0,0 0,-22 -32,-22z"/>
   <path class="fil0" d="M9216 14482c-32,0 -39,55 -39,55 0,0 24,29 36,26 13,-3 35,-58 35,-58 0,0 0,-22 -32,-22z"/>
   <path class="fil0" d="M9213 14300c-32,0 -39,55 -39,55 0,0 24,29 36,26 13,-3 35,-58 35,-58 0,0 0,-23 -32,-23z"/>
   <path class="fil0" d="M9150 14230c-32,0 -39,55 -39,55 0,0 24,29 36,26 13,-3 35,-58 35,-58 0,0 0,-23 -32,-23z"/>
   <path class="fil0" d="M9059 14153c-32,0 -39,55 -39,55 0,0 24,29 36,26 13,-3 35,-58 35,-58 0,0 0,-22 -32,-22z"/>
   <path class="fil0" d="M9014 14255c-32,0 -39,55 -39,55 0,0 24,29 36,26 13,-3 35,-58 35,-58 0,0 0,-22 -32,-22z"/>
   <path class="fil0" d="M9073 14335c-32,0 -39,55 -39,55 0,0 24,29 36,26 13,-3 35,-58 35,-58 0,0 0,-23 -32,-23z"/>
   <path class="fil0" d="M9146 14408c-32,0 -39,55 -39,55 0,0 24,29 36,26 13,-3 35,-58 35,-58 0,0 0,-23 -32,-23z"/>
   <path class="fil0" d="M9112 14506c-32,0 -39,55 -39,55 0,0 24,29 36,26 13,-3 35,-58 35,-58 0,0 0,-23 -32,-23z"/>
   <path class="fil0" d="M9038 14440c-32,0 -39,55 -39,55 0,0 24,29 36,26 13,-3 35,-58 35,-58 0,0 0,-22 -32,-22z"/>
   <path class="fil0" d="M8965 14363c-32,0 -39,55 -39,55 0,0 24,29 36,26 13,-3 35,-58 35,-58 0,0 0,-23 -32,-23z"/>
   <path class="fil0" d="M8912 14471c-32,0 -39,55 -39,55 0,0 24,29 36,26 13,-3 35,-58 35,-58 0,0 0,-23 -32,-23z"/>
   <path class="fil0" d="M8979 14541c-32,0 -39,55 -39,55 0,0 24,29 36,26 13,-3 35,-58 35,-58 0,0 0,-22 -32,-22z"/>
   <path class="fil0" d="M9063 14614c-32,0 -39,55 -39,55 0,0 24,29 36,26 13,-3 35,-58 35,-58 0,0 0,-23 -32,-23z"/>
   <path class="fil0" d="M8284 14813c7,14 35,52 49,52 14,0 28,-42 28,-42 0,0 -28,-49 -42,-45 -14,4 -42,21 -35,35z"/>
   <path class="fil0" d="M8239 14908c7,14 35,52 49,52 14,0 28,-42 28,-42 0,0 -28,-49 -42,-45 -14,4 -42,21 -35,35z"/>
   <path class="fil0" d="M8354 14894c7,14 35,52 49,52 14,0 28,-42 28,-42 0,0 -28,-49 -42,-45 -14,4 -42,21 -35,35z"/>
   <path class="fil0" d="M8437 14978c9,13 41,48 55,47 14,-2 23,-45 23,-45 0,0 -33,-45 -47,-40 -13,5 -39,26 -31,39z"/>
   <path class="fil0" d="M8517 15052c9,13 41,48 54,47 14,-2 23,-45 23,-45 0,0 -33,-45 -47,-40 -13,5 -39,26 -31,39z"/>
   <path class="fil0" d="M8598 15129c9,13 41,48 55,47 14,-2 23,-45 23,-45 0,0 -33,-45 -47,-40 -13,5 -39,26 -31,39z"/>
   <path class="fil0" d="M8674 15192c9,13 41,48 54,47 14,-2 23,-45 23,-45 0,0 -33,-45 -47,-40 -13,5 -39,26 -31,39z"/>
   <path class="fil0" d="M8758 15237c9,13 41,48 55,47 14,-2 23,-45 23,-45 0,0 -33,-45 -47,-40 -13,5 -39,26 -31,39z"/>
   <path class="fil0" d="M8734 15324c9,13 41,48 55,47 14,-2 23,-45 23,-45 0,0 -33,-45 -47,-40 -14,5 -39,26 -31,39z"/>
   <path class="fil0" d="M8685 15394c9,13 41,48 55,47 14,-2 23,-45 23,-45 0,0 -33,-45 -47,-40 -14,5 -39,26 -31,39z"/>
   <path class="fil0" d="M8636 15457c9,13 41,48 54,47 14,-2 23,-45 23,-45 0,0 -33,-45 -47,-40 -13,5 -39,26 -31,39z"/>
   <path class="fil0" d="M8587 15530c9,13 41,48 55,47 14,-2 23,-45 23,-45 0,0 -33,-45 -47,-40 -14,5 -39,26 -31,39z"/>
   <path class="fil0" d="M8727 15510c9,13 41,48 55,47 14,-2 23,-45 23,-45 0,0 -33,-45 -47,-40 -13,5 -39,26 -31,39z"/>
   <path class="fil0" d="M8776 15433c9,13 41,48 54,47 14,-2 23,-45 23,-45 0,0 -33,-45 -47,-40 -14,5 -39,26 -31,39z"/>
   <path class="fil0" d="M8818 15373c9,12 44,45 58,42 14,-3 19,-46 19,-46 0,0 -37,-43 -50,-37 -13,6 -37,28 -28,41z"/>
   <path class="fil0" d="M8646 15278c10,12 44,45 58,42 14,-3 20,-46 20,-46 0,0 -37,-43 -50,-37 -13,6 -37,29 -28,41z"/>
   <path class="fil0" d="M8555 15216c9,12 44,45 58,42 14,-3 20,-46 20,-46 0,0 -37,-43 -50,-37 -13,6 -37,29 -28,41z"/>
   <path class="fil0" d="M8472 15135c10,12 44,45 58,42 14,-3 20,-46 20,-46 0,0 -37,-43 -50,-37 -13,6 -37,29 -28,41z"/>
   <path class="fil0" d="M8384 15058c9,12 44,45 58,42 14,-3 20,-46 20,-46 0,0 -37,-43 -50,-37 -13,6 -37,28 -28,41z"/>
   <path class="fil0" d="M8311 14988c10,12 44,45 58,42 14,-3 20,-46 20,-46 0,0 -37,-43 -50,-37 -13,6 -37,29 -28,41z"/>
   <path class="fil0" d="M8245 15058c9,12 44,45 58,42 14,-3 20,-46 20,-46 0,0 -37,-43 -50,-37 -13,6 -37,28 -28,41z"/>
   <path class="fil0" d="M8325 15146c10,12 44,45 58,42 14,-3 20,-46 20,-46 0,0 -37,-43 -50,-37 -13,6 -37,29 -28,41z"/>
   <path class="fil0" d="M8426 15216c10,12 44,45 58,42 14,-3 20,-46 20,-46 0,0 -37,-43 -50,-37 -13,6 -37,29 -28,41z"/>
   <path class="fil0" d="M8496 15275c10,12 44,45 58,42 14,-3 20,-46 20,-46 0,0 -37,-43 -50,-37 -13,6 -37,29 -28,41z"/>
   <path class="fil0" d="M8587 15345c10,12 44,45 58,42 14,-3 20,-46 20,-46 0,0 -37,-43 -50,-37 -13,6 -37,28 -28,41z"/>
   <path class="fil0" d="M8545 15411c9,12 44,45 58,42 14,-3 20,-46 20,-46 0,0 -37,-43 -50,-37 -13,6 -37,29 -28,41z"/>
   <path class="fil0" d="M8458 15345c10,12 44,45 58,42 14,-3 20,-46 20,-46 0,0 -37,-43 -50,-37 -13,6 -37,28 -28,41z"/>
   <path class="fil0" d="M8360 15285c9,12 44,45 58,42 14,-3 20,-46 20,-46 0,0 -37,-43 -50,-37 -13,6 -37,29 -28,41z"/>
   <path class="fil0" d="M8304 15338c10,12 44,45 58,42 14,-3 20,-46 20,-46 0,0 -37,-43 -50,-37 -13,6 -37,28 -28,41z"/>
   <path class="fil0" d="M8412 15415c10,12 44,45 58,42 14,-3 20,-46 20,-46 0,0 -37,-43 -50,-37 -13,6 -37,29 -28,41z"/>
   <path class="fil0" d="M8489 15478c10,12 44,45 58,42 14,-3 20,-46 20,-46 0,0 -37,-43 -50,-37 -13,6 -37,29 -28,41z"/>
   <path class="fil0" d="M8213 15380c9,12 44,45 58,42 14,-3 20,-46 20,-46 0,0 -37,-43 -50,-37 -13,6 -37,29 -28,41z"/>
   <path class="fil0" d="M8297 15438c6,7 31,23 41,21 10,-2 16,-26 16,-26 0,0 -25,-22 -35,-19 -10,4 -28,17 -22,24z"/>
   <path class="fil2" d="M14007 13797c-39,-339 -22,-758 -83,-985 -61,-228 -241,-325 -272,-716 -25,-402 -67,-1041 -67,-1041 0,0 -11,-483 -422,-522 -411,-39 -497,669 -497,669 0,0 -78,638 -108,891 -31,253 -186,697 -197,888 -11,192 11,602 -31,949 -42,347 -225,586 -228,1016 -3,430 441,833 1118,860 677,28 1030,-472 1074,-819 39,-458 -250,-852 -289,-1191zm-458 -1315c-25,17 -175,-64 -463,-36 -289,28 -347,119 -366,94 -19,-25 75,-211 80,-419 6,-208 36,-919 36,-919 0,0 31,-466 314,-475 361,-28 247,619 286,932 0,602 139,805 114,821z"/>
   <path class="fil3" d="M13466 12523c-100,-28 -180,0 -175,8 6,8 75,8 167,39 92,30 128,61 150,55 22,-6 -42,-75 -142,-103z"/>
   <path class="fil3" d="M13394 12584c-100,-28 -180,0 -175,8 6,8 75,8 167,39 92,30 128,61 150,55 22,-6 -42,-75 -142,-103z"/>
   <path class="fil3" d="M12858 12595c-99,32 -150,100 -141,104 9,4 67,-35 160,-60 93,-25 140,-20 155,-37 15,-17 -76,-39 -175,-7z"/>
   <path class="fil4" d="M13316 12849c0,80 -71,146 -160,146 -88,0 -160,-65 -160,-146 0,-80 71,-146 160,-146 88,0 160,65 160,146z"/>
   <path class="fil3" d="M13827 12828c0,-17 -86,-56 -203,-42 -117,14 -339,230 -447,239 -136,11 -330,-214 -397,-250 -67,-36 -255,-33 -244,-3 11,31 122,14 233,61 111,47 247,239 402,233 155,-6 347,-211 427,-228 80,-17 228,6 228,-11z"/>
   <path class="fil3" d="M13835 12918c0,-16 -86,-52 -203,-39 -117,13 -339,216 -447,224 -136,10 -330,-201 -397,-234 -67,-34 -255,-31 -244,-3 11,29 122,13 233,57 111,44 247,224 402,219 155,-5 347,-198 427,-214 80,-16 228,5 228,-10z"/>
   <path class="fil3" d="M12347 14174c-17,17 -69,266 -100,414 -31,147 -69,230 -42,405 31,222 153,319 161,305 8,-14 -122,-222 -125,-411 -3,-189 42,-253 97,-450 55,-197 25,-280 8,-264z"/>
   <path class="fil3" d="M12442 14116c-20,18 -66,302 -102,464 -36,162 -64,251 -31,444 36,244 187,346 197,330 10,-15 -169,-236 -172,-444 -3,-208 32,-283 97,-500 65,-217 31,-312 11,-294z"/>
   <path class="fil3" d="M12525 14099c-20,18 -44,291 -80,453 -36,162 -64,243 -31,435 36,244 185,357 194,341 10,-15 -166,-239 -170,-447 -3,-208 30,-283 95,-500 65,-217 11,-301 -8,-283z"/>
   <path class="fil3" d="M13643 13014c-17,-3 -372,402 -372,425 0,22 69,86 108,142 39,56 64,161 78,155 14,-6 -28,-119 -19,-144 8,-25 53,-67 64,-67 11,0 58,89 72,75 14,-14 -31,-92 -31,-105 0,-14 19,-39 28,-39 8,0 47,119 67,92 19,-28 -42,-105 -42,-130 0,-25 30,-33 30,-33 0,0 14,44 28,28 14,-17 -8,-50 -6,-67 3,-17 67,-114 78,-117 11,-3 39,44 42,33 17,-39 -58,-139 -67,-161 -8,-22 33,-67 22,-86 -11,-19 -36,22 -53,36 -17,14 -11,-33 -28,-36z"/>
   <path class="fil0" d="M13366 13383c-11,3 -55,39 -53,53 3,14 22,39 33,39 11,0 50,-44 53,-56 3,-11 -22,-39 -33,-36z"/>
   <path class="fil0" d="M13424 13453c-11,3 -56,39 -53,53 3,14 22,39 33,39 11,0 50,-44 53,-56 3,-11 -22,-39 -33,-36z"/>
   <path class="fil0" d="M13519 13370c-11,3 -55,39 -53,53 3,14 22,39 33,39 11,0 50,-44 53,-56 3,-11 -22,-39 -33,-36z"/>
   <path class="fil0" d="M13446 13300c-11,3 -56,39 -53,53 3,14 22,39 33,39 11,0 50,-44 53,-55 3,-11 -22,-39 -33,-36z"/>
   <path class="fil5" d="M13351 14009c-8,7 -28,51 -21,59 7,9 32,18 41,13 9,-5 22,-52 20,-61 -2,-9 -32,-18 -40,-11z"/>
   <path class="fil0" d="M13510 13225c-9,2 -47,33 -44,45 2,12 19,33 28,33 9,0 42,-38 44,-47 2,-9 -19,-33 -28,-31z"/>
   <path class="fil0" d="M13590 13289c-9,2 -47,33 -44,45 2,12 19,33 28,33 9,0 42,-38 44,-47 2,-9 -19,-33 -28,-31z"/>
   <path class="fil0" d="M13646 13231c-8,2 -38,25 -36,34 2,9 15,25 23,25 8,0 34,-28 36,-35 2,-7 -15,-25 -23,-23z"/>
   <path class="fil0" d="M13571 13161c-8,2 -38,25 -36,34 2,9 15,25 23,25 8,0 34,-28 36,-35 2,-7 -15,-25 -23,-23z"/>
   <path class="fil0" d="M13635 13089c-8,2 -38,25 -36,34 2,9 15,25 23,25 8,0 34,-28 36,-35 2,-7 -15,-25 -23,-23z"/>
   <path class="fil0" d="M13699 13161c-8,2 -41,27 -39,37 2,10 16,27 25,27 8,0 37,-31 39,-39 2,-8 -17,-27 -25,-25z"/>
   <path class="fil3" d="M13610 13664c-17,28 -19,100 -8,172 11,72 42,128 56,169 14,42 -44,111 -36,147 8,36 83,117 86,144 3,28 17,200 14,222 -3,22 -72,97 -64,119 8,22 58,-47 69,-25 11,22 6,92 -19,161 -25,69 -75,119 -69,144 6,25 14,-3 33,8 19,11 -28,150 -28,150l-128 236c0,0 -192,200 -169,233 22,33 144,-42 166,-33 22,8 -8,42 25,56 33,14 25,-53 58,-67 33,-14 186,-89 191,-69 6,19 -67,53 -161,114 -94,61 -325,89 -316,122 8,33 103,28 278,-39 175,-67 344,-128 466,-377 122,-250 0,-816 0,-816 0,0 -100,-461 -133,-624 -33,-164 -53,-413 -58,-425 -28,-22 -25,283 -47,297 -61,31 -25,-350 -39,-372 -14,-22 -53,105 -58,228 -6,122 56,214 44,250 -11,36 -11,47 -28,61 -17,14 -36,-294 -47,-311 -31,-19 -28,130 -19,225 8,94 39,183 28,200 -42,36 -69,-328 -86,-300z"/>
   <path class="fil0" d="M13846 13730c-14,11 -30,92 -30,108 0,17 28,117 36,128 8,11 30,-105 30,-105 0,0 -22,-142 -36,-130z"/>
   <path class="fil0" d="M13777 13866c-14,11 -31,92 -31,108 0,17 28,117 36,128 8,11 31,-105 31,-105 0,0 -22,-142 -36,-130z"/>
   <path class="fil0" d="M13699 14002c-14,11 -31,92 -31,108 0,17 28,117 36,128 8,11 31,-105 31,-105 0,0 -22,-142 -36,-130z"/>
   <path class="fil0" d="M13760 14208c-14,11 -31,92 -31,108 0,17 28,117 36,128 8,11 31,-105 31,-105 0,0 -22,-142 -36,-130z"/>
   <path class="fil0" d="M13840 14111c-14,11 -31,92 -31,108 0,17 28,117 36,128 8,11 31,-105 31,-105 0,0 -22,-142 -36,-130z"/>
   <path class="fil0" d="M13896 14314c-15,7 -39,70 -41,84 -2,13 16,97 23,107 7,10 41,-82 41,-82 0,0 -8,-117 -23,-110z"/>
   <path class="fil0" d="M13807 14474c-15,7 -39,70 -41,84 -2,13 16,97 23,107 7,10 41,-82 41,-82 0,0 -8,-117 -23,-110z"/>
   <path class="fil0" d="M13933 14472c-16,9 -51,93 -55,112 -4,18 0,133 5,147 6,14 55,-109 55,-109 0,0 12,-159 -5,-150z"/>
   <path class="fil0" d="M13726 15083c-18,4 -75,76 -84,92 -9,16 -36,128 -35,143 2,15 82,-90 82,-90 0,0 54,-150 36,-145z"/>
   <path class="fil0" d="M13780 15250c-19,0 -92,54 -105,67 -13,14 -69,114 -71,129 -2,15 103,-65 103,-65 0,0 92,-130 73,-131z"/>
   <path class="fil0" d="M14011 15168c-19,0 -92,54 -105,67 -13,14 -69,114 -71,129 -2,15 103,-65 103,-65 0,0 92,-130 73,-131z"/>
   <path class="fil0" d="M14048 14850c-17,8 -60,88 -65,106 -6,18 -13,132 -8,147 4,14 64,-103 64,-103 0,0 26,-157 9,-150z"/>
   <path class="fil0" d="M14040 14576c-14,12 -36,101 -37,119 -1,19 21,131 29,144 8,13 36,-116 36,-116 0,0 -14,-159 -29,-147z"/>
   <path class="fil0" d="M13563 15367c-17,-5 -84,27 -96,37 -12,9 -66,87 -69,100 -3,13 94,-35 94,-35 0,0 87,-97 71,-102z"/>
   <path class="fil0" d="M13812 14696c-22,10 -68,109 -72,131 -5,22 6,159 14,176 8,17 72,-127 72,-127 0,0 9,-190 -13,-179z"/>
   <path class="fil0" d="M13942 14828c-25,9 -94,117 -104,142 -10,24 -32,185 -28,205 4,21 102,-138 102,-138 0,0 55,-218 30,-209z"/>
   <path class="fil0" d="M13913 13975c-14,11 -31,92 -31,108 0,17 28,117 36,128 8,11 30,-105 30,-105 0,0 -22,-142 -36,-130z"/>
   <path class="fil0" d="M13963 14221c-14,6 -31,52 -31,61 0,9 28,66 36,72 8,6 31,-60 31,-60 0,0 -22,-80 -36,-74z"/>
   <path class="fil0" d="M13996 14374c-14,6 -30,52 -30,61 0,9 28,66 36,72 8,6 30,-60 30,-60 0,0 -22,-80 -36,-74z"/>
   <path class="fil3" d="M13388 13747c-19,6 -42,125 -56,144 -14,19 -78,-56 -94,-25 -17,31 75,80 75,103 0,22 -5,50 -11,61 -6,11 -64,-56 -75,-36 -11,19 58,75 64,94 6,19 -80,158 -80,158 0,0 -33,-14 -36,6 -3,19 33,28 39,39 6,11 -25,44 -33,53 -8,8 -69,-14 -75,6 -6,19 44,19 50,39 6,19 -86,175 -97,183 -11,8 -47,-33 -53,-17 -6,17 33,53 31,67 -3,14 -44,47 -44,47 0,0 -47,-31 -58,-14 -11,17 22,53 25,78 3,25 -108,139 -100,164 8,25 72,-39 86,-31 14,8 -28,80 -19,92 8,11 64,-47 78,-33 14,14 -6,44 3,67 8,22 42,-22 61,-14 19,8 -11,75 14,97 25,22 42,-44 69,-22 28,22 -8,47 3,78 11,31 58,-25 72,-11 14,14 -22,61 -6,86 17,25 47,-36 64,-36 17,0 125,144 133,128 8,-17 -33,-69 -36,-86 -3,-17 25,-39 42,-33 17,6 75,72 89,44 14,-28 -67,-89 -67,-103 0,-14 8,-28 19,-33 11,-6 44,30 53,19 8,-11 -28,-50 -28,-67 0,-17 33,-55 47,-53 14,3 58,39 69,19 11,-19 -97,-139 -100,-153 -3,-14 19,-44 33,-42 14,3 28,58 42,50 31,-33 -30,-86 -33,-103 -3,-17 28,-58 28,-58 0,0 28,33 42,17 14,-17 -31,-58 -28,-75 3,-17 17,-47 25,-61 8,-14 39,14 42,0 3,-14 -75,-94 -86,-111 -11,-17 28,-61 53,-61 25,0 47,44 61,31 31,-39 -211,-253 -203,-266 19,-39 122,64 130,28 8,-36 -186,-155 -169,-203 17,-47 69,-166 44,-178 -25,-11 -72,128 -80,136 -8,8 -25,6 -33,-19 -8,-25 36,-194 17,-189z"/>
   <path class="fil3" d="M12589 14710c-14,39 28,56 33,78 6,22 -14,33 -28,44 -14,11 -61,-44 -69,-25 -8,19 44,58 53,78 8,19 -50,86 -56,105 -6,19 47,17 50,36 3,19 -50,94 -36,111 14,17 14,-19 31,-14 17,6 61,39 64,56 3,17 -50,47 -36,72 14,25 28,-33 39,-39 11,-6 64,22 64,39 8,42 -186,147 -189,164 -3,17 203,192 214,178 11,-14 -36,-56 -36,-69 0,-14 -3,-28 19,-28 22,0 55,33 55,33 0,0 69,25 81,42 11,17 -31,39 -19,61 11,22 47,-33 69,-31 22,3 50,31 58,44 8,14 -61,83 -36,97 25,14 111,-114 128,-119 17,-6 36,6 50,19 14,14 -58,94 -36,111 22,17 69,-89 86,-103 17,-14 92,25 103,6 11,-19 -72,-44 -78,-56 -6,-11 11,-31 11,-31 0,0 78,36 89,8 11,-28 -50,-39 -55,-58 -6,-19 42,-80 53,-117 11,-36 -61,-36 -69,-53 -8,-17 8,-44 14,-56 6,-11 92,11 89,-6 -3,-17 -180,-56 -350,-222 -169,-167 -344,-397 -358,-358z"/>
   <path class="fil0" d="M13373 14009c-35,0 -43,59 -43,59 0,0 26,31 40,28 14,-3 38,-63 38,-63 0,0 0,-24 -35,-24z"/>
   <path class="fil0" d="M13443 14065c-35,0 -43,59 -43,59 0,0 26,31 40,28 14,-3 38,-63 38,-63 0,0 0,-24 -35,-24z"/>
   <path class="fil0" d="M13338 14121c-35,0 -43,60 -43,60 0,0 26,31 40,28 14,-4 38,-63 38,-63 0,0 0,-24 -35,-24z"/>
   <path class="fil0" d="M13286 14232c-35,0 -43,59 -43,59 0,0 26,31 40,28 14,-4 38,-63 38,-63 0,0 0,-24 -35,-24z"/>
   <path class="fil0" d="M13240 14337c-35,0 -43,59 -43,59 0,0 26,31 40,28 14,-3 38,-63 38,-63 0,0 0,-24 -35,-24z"/>
   <path class="fil0" d="M13188 14438c-35,0 -43,60 -43,60 0,0 26,31 40,28 14,-3 38,-63 38,-63 0,0 0,-24 -35,-24z"/>
   <path class="fil0" d="M13121 14543c-32,0 -39,55 -39,55 0,0 24,29 36,26 13,-3 35,-58 35,-58 0,0 0,-22 -32,-22z"/>
   <path class="fil0" d="M13072 14641c-32,0 -39,55 -39,55 0,0 24,29 36,26 13,-3 35,-58 35,-58 0,0 0,-22 -32,-22z"/>
   <path class="fil0" d="M12999 14753c-32,0 -39,55 -39,55 0,0 23,29 36,26 13,-3 35,-58 35,-58 0,0 0,-23 -32,-23z"/>
   <path class="fil0" d="M13051 14833c-32,0 -39,55 -39,55 0,0 24,29 36,26 13,-3 35,-58 35,-58 0,0 0,-23 -32,-23z"/>
   <path class="fil0" d="M13121 14893c-32,0 -39,55 -39,55 0,0 24,29 36,26 13,-3 35,-58 35,-58 0,0 0,-22 -32,-22z"/>
   <path class="fil0" d="M13191 14956c-32,0 -39,55 -39,55 0,0 23,29 36,26 13,-3 35,-58 35,-58 0,0 0,-22 -32,-22z"/>
   <path class="fil0" d="M13278 15032c-32,0 -39,55 -39,55 0,0 24,29 36,26 13,-3 35,-58 35,-58 0,0 0,-23 -32,-23z"/>
   <path class="fil0" d="M13351 15095c-32,0 -39,55 -39,55 0,0 24,29 36,26 13,-3 35,-58 35,-58 0,0 0,-23 -32,-23z"/>
   <path class="fil0" d="M13407 15011c-32,0 -39,55 -39,55 0,0 24,29 36,26 13,-3 35,-58 35,-58 0,0 0,-23 -32,-23z"/>
   <path class="fil0" d="M13484 14907c-32,0 -39,55 -39,55 0,0 24,29 36,26 13,-3 35,-58 35,-58 0,0 0,-22 -32,-22z"/>
   <path class="fil0" d="M13414 14837c-32,0 -39,55 -39,55 0,0 24,29 36,26 13,-3 35,-58 35,-58 0,0 0,-22 -32,-22z"/>
   <path class="fil0" d="M13338 14760c-32,0 -39,55 -39,55 0,0 24,29 36,26 13,-3 35,-58 35,-58 0,0 0,-23 -32,-23z"/>
   <path class="fil0" d="M13278 14697c-32,0 -39,55 -39,55 0,0 24,29 36,26 13,-3 35,-58 35,-58 0,0 0,-23 -32,-23z"/>
   <path class="fil0" d="M13194 14620c-32,0 -39,55 -39,55 0,0 23,29 36,26 13,-3 35,-58 35,-58 0,0 0,-22 -32,-22z"/>
   <path class="fil0" d="M13131 14711c-32,0 -39,55 -39,55 0,0 24,29 36,26 13,-3 35,-58 35,-58 0,0 0,-23 -32,-23z"/>
   <path class="fil0" d="M13201 14774c-32,0 -39,55 -39,55 0,0 24,29 36,26 13,-3 35,-58 35,-58 0,0 0,-23 -32,-23z"/>
   <path class="fil0" d="M13282 14837c-32,0 -39,55 -39,55 0,0 24,29 36,26 13,-3 35,-58 35,-58 0,0 0,-22 -32,-22z"/>
   <path class="fil0" d="M13358 14928c-32,0 -39,55 -39,55 0,0 24,29 36,26 13,-3 35,-58 35,-58 0,0 0,-22 -32,-22z"/>
   <path class="fil0" d="M13470 14721c-32,0 -39,55 -39,55 0,0 24,29 36,26 13,-3 35,-58 35,-58 0,0 0,-22 -32,-22z"/>
   <path class="fil0" d="M13512 14620c-32,0 -39,55 -39,55 0,0 24,29 36,26 13,-3 35,-58 35,-58 0,0 0,-22 -32,-22z"/>
   <path class="fil0" d="M13558 14519c-32,0 -39,55 -39,55 0,0 23,29 36,26 13,-3 35,-58 35,-58 0,0 0,-23 -32,-23z"/>
   <path class="fil0" d="M13554 14337c-32,0 -39,55 -39,55 0,0 24,29 36,26 13,-3 35,-58 35,-58 0,0 0,-23 -32,-23z"/>
   <path class="fil0" d="M13491 14267c-32,0 -39,55 -39,55 0,0 23,29 36,26 13,-3 35,-58 35,-58 0,0 0,-23 -32,-23z"/>
   <path class="fil0" d="M13400 14190c-32,0 -39,55 -39,55 0,0 24,29 36,26 13,-3 35,-58 35,-58 0,0 0,-22 -32,-22z"/>
   <path class="fil0" d="M13355 14292c-32,0 -39,55 -39,55 0,0 24,29 36,26 13,-3 35,-58 35,-58 0,0 0,-22 -32,-22z"/>
   <path class="fil0" d="M13414 14372c-32,0 -39,55 -39,55 0,0 24,29 36,26 13,-3 35,-58 35,-58 0,0 0,-22 -32,-22z"/>
   <path class="fil0" d="M13488 14445c-32,0 -39,55 -39,55 0,0 23,29 36,26 13,-3 35,-58 35,-58 0,0 0,-23 -32,-23z"/>
   <path class="fil0" d="M13453 14543c-32,0 -39,55 -39,55 0,0 23,29 36,26 13,-3 35,-58 35,-58 0,0 0,-22 -32,-22z"/>
   <path class="fil0" d="M13379 14477c-32,0 -39,55 -39,55 0,0 24,29 36,26 13,-3 35,-58 35,-58 0,0 0,-22 -32,-22z"/>
   <path class="fil0" d="M13306 14400c-32,0 -39,55 -39,55 0,0 24,29 36,26 13,-3 35,-58 35,-58 0,0 0,-22 -32,-22z"/>
   <path class="fil0" d="M13254 14508c-32,0 -39,55 -39,55 0,0 23,29 36,26 13,-3 35,-58 35,-58 0,0 0,-22 -32,-22z"/>
   <path class="fil0" d="M13320 14578c-32,0 -39,55 -39,55 0,0 24,29 36,26 13,-3 35,-58 35,-58 0,0 0,-22 -32,-22z"/>
   <path class="fil0" d="M13404 14652c-32,0 -39,55 -39,55 0,0 24,29 36,26 13,-3 35,-58 35,-58 0,0 0,-23 -32,-23z"/>
   <path class="fil0" d="M12625 14851c7,14 35,52 49,52 14,0 28,-42 28,-42 0,0 -28,-49 -42,-45 -14,3 -42,21 -35,35z"/>
   <path class="fil0" d="M12580 14945c7,14 35,52 49,52 14,0 28,-42 28,-42 0,0 -28,-49 -42,-45 -14,4 -42,21 -35,35z"/>
   <path class="fil0" d="M12695 14931c7,14 35,52 49,52 14,0 28,-42 28,-42 0,0 -28,-49 -42,-45 -14,4 -42,21 -35,35z"/>
   <path class="fil0" d="M12778 15016c9,13 41,48 55,47 14,-2 23,-45 23,-45 0,0 -33,-45 -47,-40 -13,5 -39,26 -31,39z"/>
   <path class="fil0" d="M12859 15089c9,13 41,48 55,47 14,-2 23,-45 23,-45 0,0 -33,-45 -47,-40 -13,5 -39,26 -31,39z"/>
   <path class="fil0" d="M12939 15166c9,13 41,48 55,47 14,-2 23,-45 23,-45 0,0 -33,-45 -47,-40 -13,5 -39,26 -31,39z"/>
   <path class="fil0" d="M13016 15229c9,13 41,48 55,47 14,-2 23,-45 23,-45 0,0 -33,-45 -47,-40 -13,5 -39,26 -31,39z"/>
   <path class="fil0" d="M13100 15274c9,13 41,48 55,47 14,-2 23,-45 23,-45 0,0 -33,-45 -47,-40 -13,5 -39,26 -31,39z"/>
   <path class="fil0" d="M13075 15362c9,13 41,48 55,47 14,-2 23,-45 23,-45 0,0 -33,-45 -47,-40 -13,5 -39,26 -31,39z"/>
   <path class="fil0" d="M13026 15431c9,13 41,48 55,47 14,-2 23,-45 23,-45 0,0 -33,-45 -47,-40 -13,5 -39,26 -31,39z"/>
   <path class="fil0" d="M12977 15494c9,13 41,48 55,47 14,-2 23,-45 23,-45 0,0 -33,-45 -47,-40 -13,5 -39,26 -31,39z"/>
   <path class="fil0" d="M12928 15568c9,13 41,48 55,47 14,-2 23,-45 23,-45 0,0 -33,-45 -47,-40 -13,5 -39,26 -31,39z"/>
   <path class="fil0" d="M13068 15547c9,13 41,48 55,47 14,-2 23,-45 23,-45 0,0 -33,-45 -47,-40 -13,5 -39,26 -31,39z"/>
   <path class="fil0" d="M13117 15470c9,13 41,48 55,47 14,-2 23,-45 23,-45 0,0 -33,-45 -47,-40 -14,5 -39,26 -31,39z"/>
   <path class="fil0" d="M13159 15410c10,12 44,45 58,42 14,-3 19,-46 19,-46 0,0 -37,-43 -50,-37 -13,6 -37,29 -28,41z"/>
   <path class="fil0" d="M12988 15316c10,12 44,45 58,42 14,-3 19,-46 19,-46 0,0 -37,-43 -50,-37 -13,6 -37,29 -28,41z"/>
   <path class="fil0" d="M12897 15253c9,12 44,45 58,42 14,-3 20,-46 20,-46 0,0 -37,-43 -50,-37 -13,6 -37,29 -28,41z"/>
   <path class="fil0" d="M12813 15172c10,12 44,45 58,42 14,-3 19,-46 19,-46 0,0 -37,-43 -50,-37 -13,6 -37,29 -28,41z"/>
   <path class="fil0" d="M12726 15096c9,12 44,45 58,42 14,-3 20,-46 20,-46 0,0 -37,-43 -50,-37 -13,6 -37,29 -28,41z"/>
   <path class="fil0" d="M12652 15026c10,12 44,45 58,42 14,-3 19,-46 19,-46 0,0 -37,-43 -50,-37 -13,6 -37,28 -28,41z"/>
   <path class="fil0" d="M12586 15096c9,12 44,45 58,42 14,-3 19,-46 19,-46 0,0 -37,-43 -50,-37 -13,6 -37,29 -28,41z"/>
   <path class="fil0" d="M12666 15183c10,12 44,45 58,42 14,-3 19,-46 19,-46 0,0 -37,-43 -50,-37 -13,6 -37,29 -28,41z"/>
   <path class="fil0" d="M12767 15253c10,12 44,45 58,42 14,-3 19,-46 19,-46 0,0 -37,-43 -50,-37 -13,6 -37,29 -28,41z"/>
   <path class="fil0" d="M12837 15312c10,12 44,45 58,42 14,-3 19,-46 19,-46 0,0 -37,-43 -50,-37 -13,6 -37,29 -28,41z"/>
   <path class="fil0" d="M12928 15382c10,12 44,45 58,42 14,-3 19,-46 19,-46 0,0 -37,-43 -50,-37 -13,6 -37,28 -28,41z"/>
   <path class="fil0" d="M12886 15448c9,12 44,45 58,42 14,-3 20,-46 20,-46 0,0 -37,-43 -50,-37 -13,6 -37,28 -28,41z"/>
   <path class="fil0" d="M12799 15382c10,12 44,45 58,42 14,-3 19,-46 19,-46 0,0 -37,-43 -50,-37 -13,6 -37,28 -28,41z"/>
   <path class="fil0" d="M12701 15323c10,12 44,45 58,42 14,-3 19,-46 19,-46 0,0 -37,-43 -50,-37 -13,6 -37,29 -28,41z"/>
   <path class="fil0" d="M12645 15375c10,12 44,45 58,42 14,-3 19,-46 19,-46 0,0 -37,-43 -50,-37 -13,6 -37,29 -28,41z"/>
   <path class="fil0" d="M12754 15452c9,12 44,45 58,42 14,-3 19,-46 19,-46 0,0 -37,-43 -50,-37 -13,6 -37,29 -28,41z"/>
   <path class="fil0" d="M12830 15515c10,12 44,45 58,42 14,-3 19,-46 19,-46 0,0 -37,-43 -50,-37 -13,6 -37,29 -28,41z"/>
   <path class="fil0" d="M12554 15417c10,12 44,45 58,42 14,-3 19,-46 19,-46 0,0 -37,-43 -50,-37 -13,6 -37,29 -28,41z"/>
   <path class="fil0" d="M12638 15475c6,7 31,23 41,21 10,-2 16,-26 16,-26 0,0 -25,-22 -35,-19 -10,4 -28,17 -22,24z"/>
   <path class="fil2" d="M11659 18828c-39,-339 -22,-758 -83,-985 -61,-228 -241,-325 -272,-716 -25,-402 -67,-1041 -67,-1041 0,0 -11,-483 -422,-522 -411,-39 -497,669 -497,669 0,0 -78,638 -108,891 -31,253 -186,697 -197,888 -11,192 11,602 -31,949 -42,347 -225,586 -228,1016 -3,430 441,833 1118,860 677,28 1030,-472 1074,-819 39,-458 -250,-852 -289,-1191zm-458 -1315c-25,17 -175,-64 -463,-36 -289,28 -347,119 -366,94 -19,-25 75,-211 80,-419 6,-208 36,-919 36,-919 0,0 31,-466 314,-475 361,-28 247,619 286,932 0,602 139,805 114,821z"/>
   <path class="fil3" d="M11118 17554c-100,-28 -180,0 -175,8 6,8 75,8 167,39 92,31 128,61 150,56 22,-6 -42,-75 -142,-103z"/>
   <path class="fil3" d="M11046 17615c-100,-28 -180,0 -175,8 6,8 75,8 167,39 92,31 128,61 150,56 22,-6 -42,-75 -142,-103z"/>
   <path class="fil3" d="M10510 17626c-99,32 -150,100 -141,104 9,4 67,-35 160,-60 93,-25 140,-20 155,-37 15,-17 -76,-39 -175,-7z"/>
   <path class="fil4" d="M10968 17880c0,80 -71,146 -160,146 -88,0 -160,-65 -160,-146 0,-80 71,-146 160,-146 88,0 160,65 160,146z"/>
   <path class="fil3" d="M11479 17859c0,-17 -86,-56 -203,-42 -117,14 -339,230 -447,239 -136,11 -330,-214 -397,-250 -67,-36 -255,-33 -244,-3 11,31 122,14 233,61 111,47 247,239 402,233 155,-6 347,-211 427,-228 80,-17 228,6 228,-11z"/>
   <path class="fil3" d="M11487 17949c0,-16 -86,-52 -203,-39 -117,13 -339,216 -447,224 -136,10 -330,-201 -397,-235 -67,-34 -255,-31 -244,-3 11,29 122,13 233,57 111,44 247,224 402,219 155,-5 347,-198 427,-214 80,-16 228,5 228,-10z"/>
   <path class="fil3" d="M10000 19205c-17,17 -69,266 -100,414 -31,147 -69,230 -42,405 31,222 153,319 161,305 8,-14 -122,-222 -125,-411 -3,-189 42,-253 97,-450 55,-197 25,-280 8,-264z"/>
   <path class="fil3" d="M10094 19147c-20,18 -66,302 -102,464 -36,162 -64,251 -31,444 36,244 187,346 197,330 10,-15 -169,-236 -172,-444 -3,-208 32,-283 98,-500 65,-217 31,-313 11,-294z"/>
   <path class="fil3" d="M10177 19130c-20,18 -44,291 -80,453 -36,162 -64,243 -31,435 36,244 185,357 194,341 10,-15 -166,-239 -170,-447 -3,-208 30,-283 95,-500 65,-217 11,-301 -8,-283z"/>
   <path class="fil3" d="M11296 18045c-17,-3 -372,402 -372,425 0,22 69,86 108,142 39,56 64,161 78,155 14,-6 -28,-119 -19,-144 8,-25 53,-67 64,-67 11,0 58,89 72,75 14,-14 -31,-92 -31,-105 0,-14 19,-39 28,-39 8,0 47,119 67,92 19,-28 -42,-105 -42,-130 0,-25 31,-33 31,-33 0,0 14,44 28,28 14,-17 -8,-50 -6,-67 3,-17 67,-114 78,-117 11,-3 39,44 42,33 17,-39 -58,-139 -67,-161 -8,-22 33,-67 22,-86 -11,-19 -36,22 -53,36 -17,14 -11,-33 -28,-36z"/>
   <path class="fil0" d="M11018 18414c-11,3 -55,39 -53,53 3,14 22,39 33,39 11,0 50,-44 53,-56 3,-11 -22,-39 -33,-36z"/>
   <path class="fil0" d="M11077 18483c-11,3 -56,39 -53,53 3,14 22,39 33,39 11,0 50,-44 53,-56 3,-11 -22,-39 -33,-36z"/>
   <path class="fil0" d="M11171 18400c-11,3 -55,39 -53,53 3,14 22,39 33,39 11,0 50,-44 53,-56 3,-11 -22,-39 -33,-36z"/>
   <path class="fil0" d="M11099 18331c-11,3 -56,39 -53,53 3,14 22,39 33,39 11,0 50,-44 53,-56 3,-11 -22,-39 -33,-36z"/>
   <path class="fil5" d="M11003 19040c-8,7 -28,51 -21,59 7,9 32,18 41,13 9,-5 22,-52 20,-61 -2,-9 -32,-18 -40,-11z"/>
   <path class="fil0" d="M11162 18256c-9,2 -47,33 -44,45 2,12 19,33 28,33 9,0 42,-38 44,-47 2,-9 -19,-33 -28,-31z"/>
   <path class="fil0" d="M11243 18320c-9,2 -47,33 -44,45 2,12 19,33 28,33 9,0 42,-38 44,-47 2,-9 -19,-33 -28,-31z"/>
   <path class="fil0" d="M11298 18261c-8,2 -38,25 -36,34 2,9 15,25 23,25 8,0 34,-28 36,-35 2,-7 -15,-25 -23,-23z"/>
   <path class="fil0" d="M11223 18192c-8,2 -38,25 -36,34 2,9 15,25 23,25 8,0 34,-28 36,-35 2,-7 -15,-25 -23,-23z"/>
   <path class="fil0" d="M11287 18120c-8,2 -38,25 -36,34 2,9 15,25 23,25 8,0 34,-28 36,-35 2,-7 -15,-25 -23,-23z"/>
   <path class="fil0" d="M11352 18192c-8,2 -41,27 -39,37 2,10 16,27 25,27 8,0 37,-31 39,-39 2,-8 -17,-27 -25,-25z"/>
   <path class="fil3" d="M11262 18694c-17,28 -19,100 -8,172 11,72 42,128 56,169 14,42 -44,111 -36,147 8,36 83,117 86,144 3,28 17,200 14,222 -3,22 -72,97 -64,119 8,22 58,-47 69,-25 11,22 6,92 -19,161 -25,69 -75,119 -69,144 6,25 14,-3 33,8 19,11 -28,150 -28,150l-128 236c0,0 -191,200 -169,233 22,33 144,-42 167,-33 22,8 -8,42 25,56 33,14 25,-53 58,-67 33,-14 186,-89 191,-69 6,19 -67,53 -161,114 -94,61 -325,89 -316,122 8,33 103,28 278,-39 175,-67 344,-128 466,-377 122,-250 0,-816 0,-816 0,0 -100,-461 -133,-624 -33,-164 -53,-413 -58,-425 -28,-22 -25,283 -47,297 -61,30 -25,-350 -39,-372 -14,-22 -53,105 -58,228 -6,122 56,214 44,250 -11,36 -11,47 -28,61 -17,14 -36,-294 -47,-311 -31,-19 -28,131 -19,225 8,94 39,183 28,200 -42,36 -69,-327 -86,-300z"/>
   <path class="fil0" d="M11498 18761c-14,11 -31,92 -31,108 0,17 28,117 36,128 8,11 31,-105 31,-105 0,0 -22,-142 -36,-130z"/>
   <path class="fil0" d="M11429 18897c-14,11 -31,92 -31,108 0,17 28,117 36,128 8,11 31,-105 31,-105 0,0 -22,-142 -36,-130z"/>
   <path class="fil0" d="M11351 19033c-14,11 -31,92 -31,108 0,17 28,117 36,128 8,11 31,-105 31,-105 0,0 -22,-142 -36,-130z"/>
   <path class="fil0" d="M11412 19238c-14,11 -31,92 -31,108 0,17 28,117 36,128 8,11 31,-105 31,-105 0,0 -22,-141 -36,-130z"/>
   <path class="fil0" d="M11493 19141c-14,11 -31,92 -31,108 0,17 28,117 36,128 8,11 31,-105 31,-105 0,0 -22,-142 -36,-130z"/>
   <path class="fil0" d="M11548 19344c-15,7 -39,70 -41,84 -2,13 16,97 23,107 7,10 41,-82 41,-82 0,0 -8,-117 -23,-110z"/>
   <path class="fil0" d="M11459 19505c-15,7 -39,70 -41,84 -2,13 16,97 23,107 7,10 41,-82 41,-82 0,0 -8,-117 -23,-110z"/>
   <path class="fil0" d="M11586 19502c-16,9 -51,93 -55,112 -4,18 0,133 5,147 6,14 55,-109 55,-109 0,0 12,-159 -5,-150z"/>
   <path class="fil0" d="M11378 20114c-18,4 -75,76 -84,92 -9,16 -37,128 -35,143 2,15 82,-90 82,-90 0,0 54,-150 36,-145z"/>
   <path class="fil0" d="M11432 20280c-19,0 -92,54 -105,67 -13,14 -69,114 -71,128 -2,15 103,-65 103,-65 0,0 92,-130 73,-131z"/>
   <path class="fil0" d="M11663 20198c-19,0 -92,54 -105,67 -13,14 -69,114 -71,129 -2,15 103,-65 103,-65 0,0 92,-130 73,-131z"/>
   <path class="fil0" d="M11701 19881c-17,8 -60,88 -65,106 -6,18 -13,132 -8,147 4,14 64,-103 64,-103 0,0 26,-157 9,-150z"/>
   <path class="fil0" d="M11693 19607c-14,12 -36,101 -37,119 -1,19 21,131 29,144 8,13 36,-116 36,-116 0,0 -14,-159 -29,-147z"/>
   <path class="fil0" d="M11215 20397c-17,-5 -84,27 -96,37 -12,9 -66,87 -69,100 -3,13 94,-35 94,-35 0,0 87,-97 71,-102z"/>
   <path class="fil0" d="M11464 19726c-22,10 -68,109 -72,131 -5,22 6,159 14,176 8,17 72,-127 72,-127 0,0 9,-190 -13,-179z"/>
   <path class="fil0" d="M11595 19859c-25,9 -94,117 -104,142 -10,24 -32,185 -28,205 4,21 102,-137 102,-137 0,0 55,-218 30,-209z"/>
   <path class="fil0" d="M11565 19005c-14,11 -31,92 -31,108 0,17 28,117 36,128 8,11 31,-105 31,-105 0,0 -22,-142 -36,-130z"/>
   <path class="fil0" d="M11615 19252c-14,6 -31,52 -31,61 0,9 28,66 36,72 8,6 31,-60 31,-60 0,0 -22,-80 -36,-74z"/>
   <path class="fil0" d="M11648 19405c-14,6 -31,52 -31,61 0,9 28,66 36,72 8,6 31,-60 31,-60 0,0 -22,-80 -36,-74z"/>
   <path class="fil3" d="M11040 18778c-19,6 -42,125 -56,144 -14,19 -78,-55 -94,-25 -17,31 75,80 75,103 0,22 -6,50 -11,61 -6,11 -64,-56 -75,-36 -11,19 58,75 64,94 6,19 -80,158 -80,158 0,0 -33,-14 -36,6 -3,19 33,28 39,39 6,11 -25,44 -33,53 -8,8 -69,-14 -75,6 -6,19 44,19 50,39 6,19 -86,175 -97,183 -11,8 -47,-33 -53,-17 -6,17 33,53 31,67 -3,14 -44,47 -44,47 0,0 -47,-31 -58,-14 -11,17 22,53 25,78 3,25 -108,139 -100,164 8,25 72,-39 86,-31 14,8 -28,80 -19,92 8,11 64,-47 78,-33 14,14 -6,44 3,67 8,22 42,-22 61,-14 19,8 -11,75 14,97 25,22 42,-44 69,-22 28,22 -8,47 3,78 11,31 58,-25 72,-11 14,14 -22,61 -6,86 17,25 47,-36 64,-36 17,0 125,144 133,128 8,-17 -33,-69 -36,-86 -3,-17 25,-39 42,-33 17,6 75,72 89,44 14,-28 -67,-89 -67,-103 0,-14 8,-28 19,-33 11,-6 44,30 53,19 8,-11 -28,-50 -28,-67 0,-17 33,-56 47,-53 14,3 58,39 69,19 11,-19 -97,-139 -100,-153 -3,-14 19,-44 33,-42 14,3 28,58 42,50 31,-33 -31,-86 -33,-103 -3,-17 28,-58 28,-58 0,0 28,33 42,17 14,-17 -31,-58 -28,-75 3,-17 17,-47 25,-61 8,-14 39,14 42,0 3,-14 -75,-94 -86,-111 -11,-17 28,-61 53,-61 25,0 47,44 61,30 31,-39 -211,-253 -203,-266 19,-39 122,64 130,28 8,-36 -186,-155 -169,-203 17,-47 69,-166 44,-178 -25,-11 -72,128 -80,136 -8,8 -25,6 -33,-19 -8,-25 36,-194 17,-189z"/>
   <path class="fil3" d="M10241 19741c-14,39 28,56 33,78 6,22 -14,33 -28,44 -14,11 -61,-44 -69,-25 -8,19 44,58 53,78 8,19 -50,86 -56,105 -6,19 47,17 50,36 3,19 -50,94 -36,111 14,17 14,-19 31,-14 17,6 61,39 64,56 3,17 -50,47 -36,72 14,25 28,-33 39,-39 11,-6 64,22 64,39 8,42 -186,147 -189,164 -3,17 203,192 214,178 11,-14 -36,-56 -36,-69 0,-14 -3,-28 19,-28 22,0 56,33 56,33 0,0 69,25 80,42 11,17 -31,39 -19,61 11,22 47,-33 69,-31 22,3 50,31 58,44 8,14 -61,83 -36,97 25,14 111,-114 128,-119 17,-6 36,6 50,19 14,14 -58,94 -36,111 22,17 69,-89 86,-103 17,-14 92,25 103,6 11,-19 -72,-44 -78,-56 -6,-11 11,-31 11,-31 0,0 78,36 89,8 11,-28 -50,-39 -55,-58 -6,-19 42,-80 53,-117 11,-36 -61,-36 -69,-53 -8,-17 8,-44 14,-56 6,-11 92,11 89,-6 -3,-17 -180,-56 -350,-222 -169,-167 -344,-397 -358,-358z"/>
   <path class="fil0" d="M11025 19039c-35,0 -43,59 -43,59 0,0 26,31 40,28 14,-4 38,-63 38,-63 0,0 0,-24 -35,-24z"/>
   <path class="fil0" d="M11095 19095c-35,0 -43,60 -43,60 0,0 26,31 40,28 14,-3 38,-63 38,-63 0,0 0,-24 -35,-24z"/>
   <path class="fil0" d="M10990 19151c-35,0 -43,59 -43,59 0,0 26,31 40,28 14,-3 38,-63 38,-63 0,0 0,-24 -35,-24z"/>
   <path class="fil0" d="M10938 19263c-35,0 -43,59 -43,59 0,0 26,31 40,28 14,-4 38,-63 38,-63 0,0 0,-24 -35,-24z"/>
   <path class="fil0" d="M10892 19368c-35,0 -43,59 -43,59 0,0 26,31 40,28 14,-4 38,-63 38,-63 0,0 0,-24 -35,-24z"/>
   <path class="fil0" d="M10840 19469c-35,0 -43,60 -43,60 0,0 26,31 40,28 14,-4 38,-63 38,-63 0,0 0,-24 -35,-24z"/>
   <path class="fil0" d="M10773 19574c-32,0 -39,55 -39,55 0,0 24,29 36,26 13,-3 35,-58 35,-58 0,0 0,-23 -32,-23z"/>
   <path class="fil0" d="M10724 19672c-32,0 -39,55 -39,55 0,0 24,29 36,26 13,-3 35,-58 35,-58 0,0 0,-22 -32,-22z"/>
   <path class="fil0" d="M10651 19784c-32,0 -39,55 -39,55 0,0 23,29 36,26 13,-3 35,-58 35,-58 0,0 0,-22 -32,-22z"/>
   <path class="fil0" d="M10703 19864c-32,0 -39,55 -39,55 0,0 24,29 36,26 13,-3 35,-58 35,-58 0,0 0,-22 -32,-22z"/>
   <path class="fil0" d="M10773 19923c-32,0 -39,55 -39,55 0,0 24,29 36,26 13,-3 35,-58 35,-58 0,0 0,-22 -32,-22z"/>
   <path class="fil0" d="M10843 19986c-32,0 -39,55 -39,55 0,0 24,29 36,26 13,-3 35,-58 35,-58 0,0 0,-22 -32,-22z"/>
   <path class="fil0" d="M10930 20063c-32,0 -39,55 -39,55 0,0 24,29 36,26 13,-3 35,-58 35,-58 0,0 0,-22 -32,-22z"/>
   <path class="fil0" d="M11004 20126c-32,0 -39,55 -39,55 0,0 23,29 36,26 13,-3 35,-58 35,-58 0,0 0,-22 -32,-22z"/>
   <path class="fil0" d="M11060 20042c-32,0 -39,55 -39,55 0,0 24,29 36,26 13,-3 35,-58 35,-58 0,0 0,-22 -32,-22z"/>
   <path class="fil0" d="M11137 19937c-32,0 -39,55 -39,55 0,0 24,29 36,26 13,-3 35,-58 35,-58 0,0 0,-22 -32,-22z"/>
   <path class="fil0" d="M11067 19867c-32,0 -39,55 -39,55 0,0 24,29 36,26 13,-3 35,-58 35,-58 0,0 0,-23 -32,-23z"/>
   <path class="fil0" d="M10990 19791c-32,0 -39,55 -39,55 0,0 24,29 36,26 13,-3 35,-58 35,-58 0,0 0,-22 -32,-22z"/>
   <path class="fil0" d="M10930 19728c-32,0 -39,55 -39,55 0,0 24,29 36,26 13,-3 35,-58 35,-58 0,0 0,-22 -32,-22z"/>
   <path class="fil0" d="M10847 19651c-32,0 -39,55 -39,55 0,0 23,29 36,26 13,-3 35,-58 35,-58 0,0 0,-22 -32,-22z"/>
   <path class="fil0" d="M10784 19742c-32,0 -39,55 -39,55 0,0 24,29 36,26 13,-3 35,-58 35,-58 0,0 0,-22 -32,-22z"/>
   <path class="fil0" d="M10854 19805c-32,0 -39,55 -39,55 0,0 23,29 36,26 13,-3 35,-58 35,-58 0,0 0,-22 -32,-22z"/>
   <path class="fil0" d="M10934 19867c-32,0 -39,55 -39,55 0,0 24,29 36,26 13,-3 35,-58 35,-58 0,0 0,-23 -32,-23z"/>
   <path class="fil0" d="M11011 19958c-32,0 -39,55 -39,55 0,0 24,29 36,26 13,-3 35,-58 35,-58 0,0 0,-22 -32,-22z"/>
   <path class="fil0" d="M11123 19752c-32,0 -39,55 -39,55 0,0 24,29 36,26 13,-3 35,-58 35,-58 0,0 0,-23 -32,-23z"/>
   <path class="fil0" d="M11165 19651c-32,0 -39,55 -39,55 0,0 24,29 36,26 13,-3 35,-58 35,-58 0,0 0,-22 -32,-22z"/>
   <path class="fil0" d="M11210 19550c-32,0 -39,55 -39,55 0,0 24,29 36,26 13,-3 35,-58 35,-58 0,0 0,-22 -32,-22z"/>
   <path class="fil0" d="M11206 19368c-32,0 -39,55 -39,55 0,0 24,29 36,26 13,-3 35,-58 35,-58 0,0 0,-22 -32,-22z"/>
   <path class="fil0" d="M11144 19298c-32,0 -39,55 -39,55 0,0 24,29 36,26 13,-3 35,-58 35,-58 0,0 0,-22 -32,-22z"/>
   <path class="fil0" d="M11053 19221c-32,0 -39,55 -39,55 0,0 24,29 36,26 13,-3 35,-58 35,-58 0,0 0,-22 -32,-22z"/>
   <path class="fil0" d="M11007 19322c-32,0 -39,55 -39,55 0,0 23,29 36,26 13,-3 35,-58 35,-58 0,0 0,-22 -32,-22z"/>
   <path class="fil0" d="M11067 19403c-32,0 -39,55 -39,55 0,0 24,29 36,26 13,-3 35,-58 35,-58 0,0 0,-23 -32,-23z"/>
   <path class="fil0" d="M11140 19476c-32,0 -39,55 -39,55 0,0 24,29 36,26 13,-3 35,-58 35,-58 0,0 0,-22 -32,-22z"/>
   <path class="fil0" d="M11105 19574c-32,0 -39,55 -39,55 0,0 24,29 36,26 13,-3 35,-58 35,-58 0,0 0,-23 -32,-23z"/>
   <path class="fil0" d="M11032 19508c-32,0 -39,55 -39,55 0,0 24,29 36,26 13,-3 35,-58 35,-58 0,0 0,-22 -32,-22z"/>
   <path class="fil0" d="M10958 19431c-32,0 -39,55 -39,55 0,0 24,29 36,26 13,-3 35,-58 35,-58 0,0 0,-23 -32,-23z"/>
   <path class="fil0" d="M10906 19539c-32,0 -39,55 -39,55 0,0 24,29 36,26 13,-3 35,-58 35,-58 0,0 0,-22 -32,-22z"/>
   <path class="fil0" d="M10972 19609c-32,0 -39,55 -39,55 0,0 24,29 36,26 13,-3 35,-58 35,-58 0,0 0,-23 -32,-23z"/>
   <path class="fil0" d="M11056 19682c-32,0 -39,55 -39,55 0,0 24,29 36,26 13,-3 35,-58 35,-58 0,0 0,-23 -32,-23z"/>
   <path class="fil0" d="M10278 19881c7,14 35,52 49,52 14,0 28,-42 28,-42 0,0 -28,-49 -42,-45 -14,4 -42,21 -35,35z"/>
   <path class="fil0" d="M10232 19976c7,14 35,52 49,52 14,0 28,-42 28,-42 0,0 -28,-49 -42,-45 -14,4 -42,21 -35,35z"/>
   <path class="fil0" d="M10347 19962c7,14 35,52 49,52 14,0 28,-42 28,-42 0,0 -28,-49 -42,-45 -14,4 -42,21 -35,35z"/>
   <path class="fil0" d="M10431 20046c9,13 41,48 55,47 14,-2 23,-45 23,-45 0,0 -33,-45 -47,-40 -13,5 -39,26 -31,39z"/>
   <path class="fil0" d="M10511 20120c9,13 41,48 55,47 14,-2 23,-45 23,-45 0,0 -33,-45 -47,-40 -13,5 -39,26 -31,39z"/>
   <path class="fil0" d="M10591 20197c9,13 41,48 55,47 14,-2 23,-45 23,-45 0,0 -33,-45 -47,-40 -13,5 -39,26 -31,39z"/>
   <path class="fil0" d="M10668 20260c9,13 41,48 55,47 14,-2 23,-45 23,-45 0,0 -33,-45 -47,-40 -13,5 -39,26 -31,39z"/>
   <path class="fil0" d="M10752 20305c9,13 41,48 55,47 14,-2 23,-45 23,-45 0,0 -33,-45 -47,-40 -13,5 -39,26 -31,39z"/>
   <path class="fil0" d="M10728 20392c9,13 41,48 55,47 14,-2 23,-45 23,-45 0,0 -33,-45 -47,-40 -13,5 -39,26 -31,39z"/>
   <path class="fil0" d="M10679 20462c9,13 41,48 55,47 14,-2 23,-45 23,-45 0,0 -33,-45 -47,-40 -13,5 -39,26 -31,39z"/>
   <path class="fil0" d="M10630 20525c9,13 41,48 55,47 14,-2 23,-45 23,-45 0,0 -33,-45 -47,-40 -13,5 -39,26 -31,39z"/>
   <path class="fil0" d="M10581 20598c9,13 41,48 54,47 14,-2 23,-45 23,-45 0,0 -33,-45 -47,-40 -13,5 -39,26 -31,39z"/>
   <path class="fil0" d="M10720 20577c9,13 41,48 55,47 14,-2 23,-45 23,-45 0,0 -33,-45 -47,-40 -13,5 -39,26 -31,39z"/>
   <path class="fil0" d="M10769 20501c9,13 41,48 55,47 14,-2 23,-45 23,-45 0,0 -33,-45 -47,-40 -13,5 -39,26 -31,39z"/>
   <path class="fil0" d="M10811 20441c10,12 44,45 58,42 14,-3 19,-46 19,-46 0,0 -37,-43 -50,-37 -13,6 -37,29 -28,41z"/>
   <path class="fil0" d="M10640 20346c9,12 44,45 58,42 14,-3 20,-46 20,-46 0,0 -37,-43 -50,-37 -13,6 -37,29 -28,41z"/>
   <path class="fil0" d="M10549 20284c10,12 44,45 58,42 14,-3 20,-46 20,-46 0,0 -37,-43 -50,-37 -13,6 -37,29 -28,41z"/>
   <path class="fil0" d="M10465 20203c9,12 44,45 58,42 14,-3 19,-46 19,-46 0,0 -37,-43 -50,-37 -13,6 -37,29 -28,41z"/>
   <path class="fil0" d="M10378 20126c10,12 44,45 58,42 14,-3 20,-46 20,-46 0,0 -37,-43 -50,-37 -13,6 -37,29 -28,41z"/>
   <path class="fil0" d="M10305 20056c10,12 44,45 58,42 14,-3 19,-46 19,-46 0,0 -37,-43 -50,-37 -13,6 -37,29 -28,41z"/>
   <path class="fil0" d="M10238 20126c10,12 44,45 58,42 14,-3 20,-46 20,-46 0,0 -37,-43 -50,-37 -13,6 -37,29 -28,41z"/>
   <path class="fil0" d="M10319 20214c9,12 44,45 58,42 14,-3 19,-46 19,-46 0,0 -37,-43 -50,-37 -13,6 -37,29 -28,41z"/>
   <path class="fil0" d="M10420 20284c10,12 44,45 58,42 14,-3 20,-46 20,-46 0,0 -37,-43 -50,-37 -13,6 -37,29 -28,41z"/>
   <path class="fil0" d="M10490 20343c9,12 44,45 58,42 14,-3 20,-46 20,-46 0,0 -37,-43 -50,-37 -13,6 -37,29 -28,41z"/>
   <path class="fil0" d="M10581 20413c10,12 44,45 58,42 14,-3 20,-46 20,-46 0,0 -37,-43 -50,-37 -13,6 -37,29 -28,41z"/>
   <path class="fil0" d="M10539 20479c10,12 44,45 58,42 14,-3 20,-46 20,-46 0,0 -37,-43 -50,-37 -13,6 -37,29 -28,41z"/>
   <path class="fil0" d="M10451 20413c10,12 44,45 58,42 14,-3 20,-46 20,-46 0,0 -37,-43 -50,-37 -13,6 -37,29 -28,41z"/>
   <path class="fil0" d="M10353 20353c9,12 44,45 58,42 14,-3 20,-46 20,-46 0,0 -37,-43 -50,-37 -13,6 -37,29 -28,41z"/>
   <path class="fil0" d="M10298 20406c10,12 44,45 58,42 14,-3 20,-46 20,-46 0,0 -37,-43 -50,-37 -13,6 -37,29 -28,41z"/>
   <path class="fil0" d="M10406 20483c10,12 44,45 58,42 14,-3 20,-46 20,-46 0,0 -37,-43 -50,-37 -13,6 -37,29 -28,41z"/>
   <path class="fil0" d="M10483 20545c9,12 44,45 58,42 14,-3 19,-46 19,-46 0,0 -37,-43 -50,-37 -13,6 -37,29 -28,41z"/>
   <path class="fil0" d="M10207 20448c9,12 44,45 58,42 14,-3 20,-46 20,-46 0,0 -37,-43 -50,-37 -13,6 -37,29 -28,41z"/>
   <path class="fil0" d="M10291 20505c7,7 31,23 41,21 10,-2 16,-26 16,-26 0,0 -25,-22 -35,-19 -10,4 -28,17 -22,24z"/>
   <path class="fil6" d="M8828 10546c-355,22 -427,547 -427,547 0,0 -69,760 -92,971 -22,211 -186,608 -172,624 94,56 255,-394 278,-666 22,-272 56,-930 56,-930 0,0 67,-436 366,-447 300,-11 294,444 300,874 -14,819 250,1074 261,1049 11,-25 -147,-364 -153,-905 0,-577 -61,-1141 -416,-1118z"/>
   <path class="fil6" d="M13169 10583c-355,22 -427,547 -427,547 0,0 -69,760 -92,971 -22,211 -186,608 -172,624 94,55 255,-394 278,-666 22,-272 56,-930 56,-930 0,0 67,-436 366,-447 300,-11 294,444 300,874 -14,819 250,1074 261,1049 11,-25 -147,-364 -153,-905 0,-577 -61,-1141 -416,-1118z"/>
   <path class="fil6" d="M10821 15614c-355,22 -427,547 -427,547 0,0 -69,760 -92,971 -22,211 -186,608 -172,624 94,56 255,-394 278,-666 22,-272 55,-930 55,-930 0,0 67,-436 366,-447 300,-11 294,444 300,874 -14,819 250,1074 261,1049 11,-25 -147,-364 -153,-905 0,-577 -61,-1141 -416,-1118z"/>
  </g>
 </g>
</svg>
